<mxfile host="Electron" agent="Mozilla/5.0 (Windows NT 10.0; Win64; x64) AppleWebKit/537.36 (KHTML, like Gecko) draw.io/26.1.1 Chrome/132.0.6834.210 Electron/34.3.3 Safari/537.36" version="26.1.1">
  <diagram name="Page-1" id="NsUQxurhGoFurxWhNryX">
    <mxGraphModel dx="2268" dy="2002" grid="1" gridSize="10" guides="1" tooltips="1" connect="1" arrows="1" fold="1" page="1" pageScale="1" pageWidth="850" pageHeight="1100" math="0" shadow="0">
      <root>
        <mxCell id="0" />
        <mxCell id="1" parent="0" />
        <mxCell id="5RF5tTsd8xKZaFErHmXA-1" value="" style="whiteSpace=wrap;html=1;aspect=fixed;" vertex="1" parent="1">
          <mxGeometry x="-440" y="-405" width="1010" height="1010" as="geometry" />
        </mxCell>
        <mxCell id="5RF5tTsd8xKZaFErHmXA-2" value="Menu" style="rounded=0;whiteSpace=wrap;html=1;" vertex="1" parent="1">
          <mxGeometry x="-230" y="-110" width="120" height="30" as="geometry" />
        </mxCell>
        <mxCell id="5RF5tTsd8xKZaFErHmXA-3" value="Item_id" style="ellipse;whiteSpace=wrap;html=1;" vertex="1" parent="1">
          <mxGeometry x="-340" y="-250" width="120" height="40" as="geometry" />
        </mxCell>
        <mxCell id="5RF5tTsd8xKZaFErHmXA-4" value="Image" style="ellipse;whiteSpace=wrap;html=1;" vertex="1" parent="1">
          <mxGeometry x="-20" y="-180" width="120" height="40" as="geometry" />
        </mxCell>
        <mxCell id="5RF5tTsd8xKZaFErHmXA-6" value="Price" style="ellipse;whiteSpace=wrap;html=1;" vertex="1" parent="1">
          <mxGeometry x="-60" y="-240" width="120" height="40" as="geometry" />
        </mxCell>
        <mxCell id="5RF5tTsd8xKZaFErHmXA-8" value="Item_name" style="ellipse;whiteSpace=wrap;html=1;" vertex="1" parent="1">
          <mxGeometry x="-200" y="-280" width="120" height="40" as="geometry" />
        </mxCell>
        <mxCell id="5RF5tTsd8xKZaFErHmXA-10" value="" style="endArrow=none;html=1;rounded=0;entryX=1;entryY=1;entryDx=0;entryDy=0;exitX=0.167;exitY=0;exitDx=0;exitDy=0;exitPerimeter=0;" edge="1" parent="1" source="5RF5tTsd8xKZaFErHmXA-2" target="5RF5tTsd8xKZaFErHmXA-3">
          <mxGeometry width="50" height="50" relative="1" as="geometry">
            <mxPoint x="-120" y="-20" as="sourcePoint" />
            <mxPoint x="-70" y="-70" as="targetPoint" />
            <Array as="points" />
          </mxGeometry>
        </mxCell>
        <mxCell id="5RF5tTsd8xKZaFErHmXA-11" value="" style="endArrow=none;html=1;rounded=0;entryX=0.5;entryY=1;entryDx=0;entryDy=0;exitX=0.389;exitY=0.056;exitDx=0;exitDy=0;exitPerimeter=0;" edge="1" parent="1" source="5RF5tTsd8xKZaFErHmXA-2" target="5RF5tTsd8xKZaFErHmXA-8">
          <mxGeometry width="50" height="50" relative="1" as="geometry">
            <mxPoint x="-200" y="-100" as="sourcePoint" />
            <mxPoint x="-228" y="-206" as="targetPoint" />
            <Array as="points" />
          </mxGeometry>
        </mxCell>
        <mxCell id="5RF5tTsd8xKZaFErHmXA-12" value="" style="endArrow=none;html=1;rounded=0;entryX=0;entryY=1;entryDx=0;entryDy=0;" edge="1" parent="1" target="5RF5tTsd8xKZaFErHmXA-6">
          <mxGeometry width="50" height="50" relative="1" as="geometry">
            <mxPoint x="-180" y="-110" as="sourcePoint" />
            <mxPoint x="-130" y="-230" as="targetPoint" />
            <Array as="points" />
          </mxGeometry>
        </mxCell>
        <mxCell id="5RF5tTsd8xKZaFErHmXA-13" value="" style="endArrow=none;html=1;rounded=0;entryX=0;entryY=0;entryDx=0;entryDy=0;exitX=1;exitY=0.25;exitDx=0;exitDy=0;" edge="1" parent="1" source="5RF5tTsd8xKZaFErHmXA-2" target="5RF5tTsd8xKZaFErHmXA-4">
          <mxGeometry width="50" height="50" relative="1" as="geometry">
            <mxPoint x="-170" y="-100" as="sourcePoint" />
            <mxPoint x="-32" y="-196" as="targetPoint" />
            <Array as="points" />
          </mxGeometry>
        </mxCell>
        <mxCell id="5RF5tTsd8xKZaFErHmXA-25" value="Sale" style="rounded=0;whiteSpace=wrap;html=1;" vertex="1" parent="1">
          <mxGeometry x="210" y="-110" width="120" height="30" as="geometry" />
        </mxCell>
        <mxCell id="5RF5tTsd8xKZaFErHmXA-26" value="Sale_id" style="ellipse;whiteSpace=wrap;html=1;" vertex="1" parent="1">
          <mxGeometry x="100" y="-240" width="120" height="40" as="geometry" />
        </mxCell>
        <mxCell id="5RF5tTsd8xKZaFErHmXA-27" value="" style="endArrow=none;html=1;rounded=0;entryX=0.5;entryY=1;entryDx=0;entryDy=0;exitX=0.128;exitY=0.078;exitDx=0;exitDy=0;exitPerimeter=0;" edge="1" parent="1" source="5RF5tTsd8xKZaFErHmXA-25" target="5RF5tTsd8xKZaFErHmXA-26">
          <mxGeometry width="50" height="50" relative="1" as="geometry">
            <mxPoint x="-100" y="-92" as="sourcePoint" />
            <mxPoint x="8" y="-164" as="targetPoint" />
            <Array as="points" />
          </mxGeometry>
        </mxCell>
        <mxCell id="5RF5tTsd8xKZaFErHmXA-28" value="date" style="ellipse;whiteSpace=wrap;html=1;" vertex="1" parent="1">
          <mxGeometry x="250" y="-280" width="120" height="40" as="geometry" />
        </mxCell>
        <mxCell id="5RF5tTsd8xKZaFErHmXA-29" value="Sale_id" style="ellipse;whiteSpace=wrap;html=1;" vertex="1" parent="1">
          <mxGeometry x="380" y="-200" width="120" height="40" as="geometry" />
        </mxCell>
        <mxCell id="5RF5tTsd8xKZaFErHmXA-30" value="" style="endArrow=none;html=1;rounded=0;entryX=0.5;entryY=1;entryDx=0;entryDy=0;exitX=1;exitY=0;exitDx=0;exitDy=0;" edge="1" parent="1" source="5RF5tTsd8xKZaFErHmXA-25">
          <mxGeometry width="50" height="50" relative="1" as="geometry">
            <mxPoint x="485" y="-68" as="sourcePoint" />
            <mxPoint x="420" y="-160" as="targetPoint" />
            <Array as="points" />
          </mxGeometry>
        </mxCell>
        <mxCell id="5RF5tTsd8xKZaFErHmXA-31" value="" style="endArrow=none;html=1;rounded=0;entryX=0.5;entryY=1;entryDx=0;entryDy=0;exitX=0.422;exitY=0.1;exitDx=0;exitDy=0;exitPerimeter=0;" edge="1" parent="1" source="5RF5tTsd8xKZaFErHmXA-25">
          <mxGeometry width="50" height="50" relative="1" as="geometry">
            <mxPoint x="355" y="-148" as="sourcePoint" />
            <mxPoint x="290" y="-240" as="targetPoint" />
            <Array as="points" />
          </mxGeometry>
        </mxCell>
        <mxCell id="5RF5tTsd8xKZaFErHmXA-58" style="edgeStyle=orthogonalEdgeStyle;rounded=0;orthogonalLoop=1;jettySize=auto;html=1;exitX=1;exitY=0.5;exitDx=0;exitDy=0;entryX=0;entryY=0.5;entryDx=0;entryDy=0;" edge="1" parent="1" source="5RF5tTsd8xKZaFErHmXA-34" target="5RF5tTsd8xKZaFErHmXA-35">
          <mxGeometry relative="1" as="geometry" />
        </mxCell>
        <mxCell id="5RF5tTsd8xKZaFErHmXA-59" value="Manages" style="edgeLabel;html=1;align=center;verticalAlign=middle;resizable=0;points=[];" vertex="1" connectable="0" parent="5RF5tTsd8xKZaFErHmXA-58">
          <mxGeometry x="0.0586" y="1" relative="1" as="geometry">
            <mxPoint as="offset" />
          </mxGeometry>
        </mxCell>
        <mxCell id="5RF5tTsd8xKZaFErHmXA-61" style="edgeStyle=orthogonalEdgeStyle;rounded=0;orthogonalLoop=1;jettySize=auto;html=1;exitX=0.5;exitY=1;exitDx=0;exitDy=0;" edge="1" parent="1" source="5RF5tTsd8xKZaFErHmXA-34">
          <mxGeometry relative="1" as="geometry">
            <mxPoint x="40" y="230" as="targetPoint" />
          </mxGeometry>
        </mxCell>
        <mxCell id="5RF5tTsd8xKZaFErHmXA-62" style="edgeStyle=orthogonalEdgeStyle;rounded=0;orthogonalLoop=1;jettySize=auto;html=1;exitX=0.5;exitY=0;exitDx=0;exitDy=0;" edge="1" parent="1" source="5RF5tTsd8xKZaFErHmXA-34">
          <mxGeometry relative="1" as="geometry">
            <mxPoint x="-180" y="-80" as="targetPoint" />
          </mxGeometry>
        </mxCell>
        <mxCell id="5RF5tTsd8xKZaFErHmXA-63" value="Manages" style="edgeLabel;html=1;align=center;verticalAlign=middle;resizable=0;points=[];" vertex="1" connectable="0" parent="5RF5tTsd8xKZaFErHmXA-62">
          <mxGeometry x="0.1579" y="1" relative="1" as="geometry">
            <mxPoint y="-1" as="offset" />
          </mxGeometry>
        </mxCell>
        <mxCell id="5RF5tTsd8xKZaFErHmXA-64" style="edgeStyle=orthogonalEdgeStyle;rounded=0;orthogonalLoop=1;jettySize=auto;html=1;entryX=0;entryY=0.5;entryDx=0;entryDy=0;" edge="1" parent="1" source="5RF5tTsd8xKZaFErHmXA-34" target="5RF5tTsd8xKZaFErHmXA-25">
          <mxGeometry relative="1" as="geometry">
            <Array as="points">
              <mxPoint x="-180" y="50" />
              <mxPoint x="45" y="50" />
              <mxPoint x="45" y="-95" />
            </Array>
          </mxGeometry>
        </mxCell>
        <mxCell id="5RF5tTsd8xKZaFErHmXA-65" value="Tracks" style="edgeLabel;html=1;align=center;verticalAlign=middle;resizable=0;points=[];" vertex="1" connectable="0" parent="5RF5tTsd8xKZaFErHmXA-64">
          <mxGeometry x="0.1209" y="2" relative="1" as="geometry">
            <mxPoint as="offset" />
          </mxGeometry>
        </mxCell>
        <mxCell id="5RF5tTsd8xKZaFErHmXA-34" value="Admin" style="rounded=0;whiteSpace=wrap;html=1;" vertex="1" parent="1">
          <mxGeometry x="-240" y="80" width="120" height="30" as="geometry" />
        </mxCell>
        <mxCell id="5RF5tTsd8xKZaFErHmXA-60" style="edgeStyle=orthogonalEdgeStyle;rounded=0;orthogonalLoop=1;jettySize=auto;html=1;exitX=0.5;exitY=1;exitDx=0;exitDy=0;entryX=0.5;entryY=0;entryDx=0;entryDy=0;" edge="1" parent="1" source="5RF5tTsd8xKZaFErHmXA-35" target="5RF5tTsd8xKZaFErHmXA-36">
          <mxGeometry relative="1" as="geometry" />
        </mxCell>
        <mxCell id="5RF5tTsd8xKZaFErHmXA-35" value="Staff" style="rounded=0;whiteSpace=wrap;html=1;" vertex="1" parent="1">
          <mxGeometry x="190" y="80" width="120" height="30" as="geometry" />
        </mxCell>
        <mxCell id="5RF5tTsd8xKZaFErHmXA-36" value="Invoice" style="rounded=0;whiteSpace=wrap;html=1;" vertex="1" parent="1">
          <mxGeometry x="-10" y="230" width="120" height="30" as="geometry" />
        </mxCell>
        <mxCell id="5RF5tTsd8xKZaFErHmXA-37" value="Admin_id" style="ellipse;whiteSpace=wrap;html=1;" vertex="1" parent="1">
          <mxGeometry x="-410" y="110" width="120" height="40" as="geometry" />
        </mxCell>
        <mxCell id="5RF5tTsd8xKZaFErHmXA-39" value="User&lt;span style=&quot;color: rgba(0, 0, 0, 0); font-family: monospace; font-size: 0px; text-align: start; text-wrap-mode: nowrap;&quot;&gt;%3CmxGraphModel%3E%3Croot%3E%3CmxCell%20id%3D%220%22%2F%3E%3CmxCell%20id%3D%221%22%20parent%3D%220%22%2F%3E%3CmxCell%20id%3D%222%22%20value%3D%22Admin_id%22%20style%3D%22ellipse%3BwhiteSpace%3Dwrap%3Bhtml%3D1%3B%22%20vertex%3D%221%22%20parent%3D%221%22%3E%3CmxGeometry%20x%3D%22-340%22%20y%3D%22190%22%20width%3D%22120%22%20height%3D%2240%22%20as%3D%22geometry%22%2F%3E%3C%2FmxCell%3E%3C%2Froot%3E%3C%2FmxGraphModel%3E&lt;/span&gt;name" style="ellipse;whiteSpace=wrap;html=1;" vertex="1" parent="1">
          <mxGeometry x="-380" y="190" width="120" height="40" as="geometry" />
        </mxCell>
        <mxCell id="5RF5tTsd8xKZaFErHmXA-40" value="User&lt;span style=&quot;color: rgba(0, 0, 0, 0); font-family: monospace; font-size: 0px; text-align: start; text-wrap-mode: nowrap;&quot;&gt;%3CmxGraphModel%3E%3Croot%3E%3CmxCell%20id%3D%220%22%2F%3E%3CmxCell%20id%3D%221%22%20parent%3D%220%22%2F%3E%3CmxCell%20id%3D%222%22%20value%3D%22Admin_id%22%20style%3D%22ellipse%3BwhiteSpace%3Dwrap%3Bhtml%3D1%3B%22%20vertex%3D%221%22%20parent%3D%221%22%3E%3CmxGeometry%20x%3D%22-340%22%20y%3D%22190%22%20width%3D%22120%22%20height%3D%2240%22%20as%3D%22geometry%22%2F%3E%3C%2FmxCell%3E%3C%2Froot%3E%3C%2FmxGraphModel%3E&lt;/span&gt;name" style="ellipse;whiteSpace=wrap;html=1;" vertex="1" parent="1">
          <mxGeometry x="-410" y="30" width="120" height="40" as="geometry" />
        </mxCell>
        <mxCell id="5RF5tTsd8xKZaFErHmXA-41" value="" style="endArrow=none;html=1;rounded=0;entryX=1;entryY=0.5;entryDx=0;entryDy=0;" edge="1" parent="1" source="5RF5tTsd8xKZaFErHmXA-34" target="5RF5tTsd8xKZaFErHmXA-40">
          <mxGeometry width="50" height="50" relative="1" as="geometry">
            <mxPoint x="-266" y="150" as="sourcePoint" />
            <mxPoint x="-294" y="44" as="targetPoint" />
            <Array as="points" />
          </mxGeometry>
        </mxCell>
        <mxCell id="5RF5tTsd8xKZaFErHmXA-42" value="" style="endArrow=none;html=1;rounded=0;entryX=1;entryY=0.5;entryDx=0;entryDy=0;exitX=0;exitY=0.75;exitDx=0;exitDy=0;" edge="1" parent="1" source="5RF5tTsd8xKZaFErHmXA-34" target="5RF5tTsd8xKZaFErHmXA-37">
          <mxGeometry width="50" height="50" relative="1" as="geometry">
            <mxPoint x="-230" y="150" as="sourcePoint" />
            <mxPoint x="-303" y="120" as="targetPoint" />
            <Array as="points" />
          </mxGeometry>
        </mxCell>
        <mxCell id="5RF5tTsd8xKZaFErHmXA-43" value="" style="endArrow=none;html=1;rounded=0;entryX=0.741;entryY=0.058;entryDx=0;entryDy=0;exitX=0.181;exitY=0.426;exitDx=0;exitDy=0;exitPerimeter=0;entryPerimeter=0;" edge="1" parent="1" target="5RF5tTsd8xKZaFErHmXA-39">
          <mxGeometry width="50" height="50" relative="1" as="geometry">
            <mxPoint x="-230" y="110" as="sourcePoint" />
            <mxPoint x="-280" y="140" as="targetPoint" />
            <Array as="points" />
          </mxGeometry>
        </mxCell>
        <mxCell id="5RF5tTsd8xKZaFErHmXA-44" value="User&lt;span style=&quot;color: rgba(0, 0, 0, 0); font-family: monospace; font-size: 0px; text-align: start; text-wrap-mode: nowrap;&quot;&gt;%3CmxGraphModel%3E%3Croot%3E%3CmxCell%20id%3D%220%22%2F%3E%3CmxCell%20id%3D%221%22%20parent%3D%220%22%2F%3E%3CmxCell%20id%3D%222%22%20value%3D%22Admin_id%22%20style%3D%22ellipse%3BwhiteSpace%3Dwrap%3Bhtml%3D1%3B%22%20vertex%3D%221%22%20parent%3D%221%22%3E%3CmxGeometry%20x%3D%22-340%22%20y%3D%22190%22%20width%3D%22120%22%20height%3D%2240%22%20as%3D%22geometry%22%2F%3E%3C%2FmxCell%3E%3C%2Froot%3E%3C%2FmxGraphModel%3E&lt;/span&gt;name" style="ellipse;whiteSpace=wrap;html=1;" vertex="1" parent="1">
          <mxGeometry x="390" y="140" width="120" height="40" as="geometry" />
        </mxCell>
        <mxCell id="5RF5tTsd8xKZaFErHmXA-45" value="User&lt;span style=&quot;color: rgba(0, 0, 0, 0); font-family: monospace; font-size: 0px; text-align: start; text-wrap-mode: nowrap;&quot;&gt;%3CmxGraphModel%3E%3Croot%3E%3CmxCell%20id%3D%220%22%2F%3E%3CmxCell%20id%3D%221%22%20parent%3D%220%22%2F%3E%3CmxCell%20id%3D%222%22%20value%3D%22Admin_id%22%20style%3D%22ellipse%3BwhiteSpace%3Dwrap%3Bhtml%3D1%3B%22%20vertex%3D%221%22%20parent%3D%221%22%3E%3CmxGeometry%20x%3D%22-340%22%20y%3D%22190%22%20width%3D%22120%22%20height%3D%2240%22%20as%3D%22geometry%22%2F%3E%3C%2FmxCell%3E%3C%2Froot%3E%3C%2FmxGraphModel%3E&lt;/span&gt;name" style="ellipse;whiteSpace=wrap;html=1;" vertex="1" parent="1">
          <mxGeometry x="390" y="80" width="120" height="40" as="geometry" />
        </mxCell>
        <mxCell id="5RF5tTsd8xKZaFErHmXA-46" value="User&lt;span style=&quot;color: rgba(0, 0, 0, 0); font-family: monospace; font-size: 0px; text-align: start; text-wrap-mode: nowrap;&quot;&gt;%3CmxGraphModel%3E%3Croot%3E%3CmxCell%20id%3D%220%22%2F%3E%3CmxCell%20id%3D%221%22%20parent%3D%220%22%2F%3E%3CmxCell%20id%3D%222%22%20value%3D%22Admin_id%22%20style%3D%22ellipse%3BwhiteSpace%3Dwrap%3Bhtml%3D1%3B%22%20vertex%3D%221%22%20parent%3D%221%22%3E%3CmxGeometry%20x%3D%22-340%22%20y%3D%22190%22%20width%3D%22120%22%20height%3D%2240%22%20as%3D%22geometry%22%2F%3E%3C%2FmxCell%3E%3C%2Froot%3E%3C%2FmxGraphModel%3E&lt;/span&gt;name" style="ellipse;whiteSpace=wrap;html=1;" vertex="1" parent="1">
          <mxGeometry x="380" width="120" height="40" as="geometry" />
        </mxCell>
        <mxCell id="5RF5tTsd8xKZaFErHmXA-47" value="" style="endArrow=none;html=1;rounded=0;entryX=1;entryY=0.5;entryDx=0;entryDy=0;exitX=0;exitY=0.5;exitDx=0;exitDy=0;" edge="1" parent="1" source="5RF5tTsd8xKZaFErHmXA-45" target="5RF5tTsd8xKZaFErHmXA-35">
          <mxGeometry width="50" height="50" relative="1" as="geometry">
            <mxPoint x="403" y="90" as="sourcePoint" />
            <mxPoint x="330" y="60" as="targetPoint" />
            <Array as="points" />
          </mxGeometry>
        </mxCell>
        <mxCell id="5RF5tTsd8xKZaFErHmXA-48" value="" style="endArrow=none;html=1;rounded=0;entryX=1;entryY=0.5;entryDx=0;entryDy=0;exitX=0;exitY=0;exitDx=0;exitDy=0;" edge="1" parent="1" source="5RF5tTsd8xKZaFErHmXA-44" target="5RF5tTsd8xKZaFErHmXA-35">
          <mxGeometry width="50" height="50" relative="1" as="geometry">
            <mxPoint x="400" y="110" as="sourcePoint" />
            <mxPoint x="320" y="105" as="targetPoint" />
            <Array as="points" />
          </mxGeometry>
        </mxCell>
        <mxCell id="5RF5tTsd8xKZaFErHmXA-49" value="" style="endArrow=none;html=1;rounded=0;entryX=1;entryY=0.5;entryDx=0;entryDy=0;exitX=0.087;exitY=0.827;exitDx=0;exitDy=0;exitPerimeter=0;" edge="1" parent="1" source="5RF5tTsd8xKZaFErHmXA-46" target="5RF5tTsd8xKZaFErHmXA-35">
          <mxGeometry width="50" height="50" relative="1" as="geometry">
            <mxPoint x="418" y="156" as="sourcePoint" />
            <mxPoint x="320" y="105" as="targetPoint" />
            <Array as="points" />
          </mxGeometry>
        </mxCell>
        <mxCell id="5RF5tTsd8xKZaFErHmXA-50" value="sale_id" style="ellipse;whiteSpace=wrap;html=1;" vertex="1" parent="1">
          <mxGeometry x="-90" y="330" width="120" height="40" as="geometry" />
        </mxCell>
        <mxCell id="5RF5tTsd8xKZaFErHmXA-51" value="invoice_id" style="ellipse;whiteSpace=wrap;html=1;" vertex="1" parent="1">
          <mxGeometry x="-190" y="280" width="120" height="40" as="geometry" />
        </mxCell>
        <mxCell id="5RF5tTsd8xKZaFErHmXA-52" value="date" style="ellipse;whiteSpace=wrap;html=1;" vertex="1" parent="1">
          <mxGeometry x="50" y="350" width="120" height="40" as="geometry" />
        </mxCell>
        <mxCell id="5RF5tTsd8xKZaFErHmXA-53" value="date" style="ellipse;whiteSpace=wrap;html=1;" vertex="1" parent="1">
          <mxGeometry x="150" y="310" width="120" height="40" as="geometry" />
        </mxCell>
        <mxCell id="5RF5tTsd8xKZaFErHmXA-54" value="" style="endArrow=none;html=1;rounded=0;entryX=0.741;entryY=0.058;entryDx=0;entryDy=0;exitX=0.25;exitY=1;exitDx=0;exitDy=0;entryPerimeter=0;" edge="1" parent="1" source="5RF5tTsd8xKZaFErHmXA-36">
          <mxGeometry width="50" height="50" relative="1" as="geometry">
            <mxPoint x="30" y="248" as="sourcePoint" />
            <mxPoint x="-31" y="330" as="targetPoint" />
            <Array as="points" />
          </mxGeometry>
        </mxCell>
        <mxCell id="5RF5tTsd8xKZaFErHmXA-55" value="" style="endArrow=none;html=1;rounded=0;entryX=0.355;entryY=0.095;entryDx=0;entryDy=0;entryPerimeter=0;exitX=0.5;exitY=1;exitDx=0;exitDy=0;" edge="1" parent="1" source="5RF5tTsd8xKZaFErHmXA-36" target="5RF5tTsd8xKZaFErHmXA-52">
          <mxGeometry width="50" height="50" relative="1" as="geometry">
            <mxPoint x="40" y="270" as="sourcePoint" />
            <mxPoint x="-21" y="340" as="targetPoint" />
            <Array as="points" />
          </mxGeometry>
        </mxCell>
        <mxCell id="5RF5tTsd8xKZaFErHmXA-56" value="" style="endArrow=none;html=1;rounded=0;entryX=0;entryY=0;entryDx=0;entryDy=0;exitX=0.621;exitY=1.065;exitDx=0;exitDy=0;exitPerimeter=0;" edge="1" parent="1" source="5RF5tTsd8xKZaFErHmXA-36" target="5RF5tTsd8xKZaFErHmXA-53">
          <mxGeometry width="50" height="50" relative="1" as="geometry">
            <mxPoint x="60" y="270" as="sourcePoint" />
            <mxPoint x="103" y="364" as="targetPoint" />
            <Array as="points" />
          </mxGeometry>
        </mxCell>
        <mxCell id="5RF5tTsd8xKZaFErHmXA-57" value="" style="endArrow=none;html=1;rounded=0;entryX=0;entryY=0.5;entryDx=0;entryDy=0;exitX=1;exitY=0;exitDx=0;exitDy=0;" edge="1" parent="1" source="5RF5tTsd8xKZaFErHmXA-51" target="5RF5tTsd8xKZaFErHmXA-36">
          <mxGeometry width="50" height="50" relative="1" as="geometry">
            <mxPoint x="-103" y="200" as="sourcePoint" />
            <mxPoint y="254" as="targetPoint" />
            <Array as="points" />
          </mxGeometry>
        </mxCell>
      </root>
    </mxGraphModel>
  </diagram>
</mxfile>
